<svg height="512pt" viewBox="0 0 512 512" width="512pt" xmlns="http://www.w3.org/2000/svg"><path d="m497 152h-181c-24.300781 0-46.199219 12-60 30.300781-13.800781-18.601562-35.699219-30.300781-60-30.300781h-181c-8.402344 0-15 6.597656-15 15v300c0 8.402344 6.597656 15 15 15h168.699219c22.800781 0 45.300781 9.300781 61.800781 25.5 2.699219 3 6.601562 4.5 10.5 4.5s7.800781-1.5 10.5-4.5c16.5-16.199219 39-25.5 61.800781-25.5h168.699219c8.402344 0 15-6.597656 15-15v-300c0-8.402344-6.597656-15-15-15zm0 0" fill="#463b85"/><path d="m512 167v300c0 8.402344-6.597656 15-15 15h-168.699219c-22.800781 0-45.300781 9.300781-61.800781 25.5-2.699219 3-6.601562 4.5-10.5 4.5v-329.699219c13.800781-18.300781 35.699219-30.300781 60-30.300781h181c8.402344 0 15 6.597656 15 15zm0 0" fill="#392e6e"/><path d="m256 476.925781c20.671875-15.964843 46.351562-24.925781 72.300781-24.925781h153.699219v-300h-166c-24.300781 0-46.199219 12-60 30.300781-13.800781-18.601562-35.699219-30.300781-60-30.300781h-166v300h153.699219c25.949219 0 51.628906 8.960938 72.300781 24.925781zm0 0" fill="#deecf1"/><path d="m328.300781 452h153.699219v-300h-166c-22.78125 0-43.453125 10.546875-57.320312 26.945312-.921876 1.089844-1.816407 2.210938-2.679688 3.355469v294.625c20.671875-15.964843 46.351562-24.925781 72.300781-24.925781zm0 0" fill="#c6e2e7"/><path d="m166 362h-91c-8.289062 0-15-6.710938-15-15s6.710938-15 15-15h91c8.289062 0 15 6.710938 15 15s-6.710938 15-15 15zm0 0" fill="#a8d3d8"/><path d="m166 422h-91c-8.289062 0-15-6.710938-15-15s6.710938-15 15-15h91c8.289062 0 15 6.710938 15 15s-6.710938 15-15 15zm0 0" fill="#a8d3d8"/><path d="m437 422h-91c-8.289062 0-15-6.710938-15-15s6.710938-15 15-15h91c8.289062 0 15 6.710938 15 15s-6.710938 15-15 15zm0 0" fill="#8ebac5"/><path d="m437 362h-91c-8.289062 0-15-6.710938-15-15s6.710938-15 15-15h91c8.289062 0 15 6.710938 15 15s-6.710938 15-15 15zm0 0" fill="#8ebac5"/><path d="m166 302h-91c-8.289062 0-15-6.710938-15-15s6.710938-15 15-15h91c8.289062 0 15 6.710938 15 15s-6.710938 15-15 15zm0 0" fill="#a8d3d8"/><path d="m437 302h-91c-8.289062 0-15-6.710938-15-15s6.710938-15 15-15h91c8.289062 0 15 6.710938 15 15s-6.710938 15-15 15zm0 0" fill="#8ebac5"/><path d="m437 242h-91c-8.289062 0-15-6.710938-15-15s6.710938-15 15-15h91c8.289062 0 15 6.710938 15 15s-6.710938 15-15 15zm0 0" fill="#8ebac5"/><path d="m166 242h-91c-8.289062 0-15-6.710938-15-15s6.710938-15 15-15h91c8.289062 0 15 6.710938 15 15s-6.710938 15-15 15zm0 0" fill="#a8d3d8"/><path d="m286 362c0 1.5-.300781 3.300781-.902344 4.800781l-15 45c-1.796875 6-7.5 10.199219-14.097656 10.199219s-12.300781-4.199219-14.097656-10.199219l-15-45c-.601563-1.5-.902344-3.300781-.902344-4.800781l30-30zm0 0" fill="#ffcebf"/><path d="m256 332 30 30c0 1.5-.300781 3.300781-.902344 4.800781l-15 45c-1.796875 6-7.5 10.199219-14.097656 10.199219zm0 0" fill="#ffa78f"/><path d="m286 15v45l-30 30-30-30v-45c0-8.402344 6.597656-15 15-15h30c8.402344 0 15 6.597656 15 15zm0 0" fill="#54469d"/><path d="m286 15v45l-30 30v-90h15c8.402344 0 15 6.597656 15 15zm0 0" fill="#392e6e"/><path d="m226 60h60v302h-60zm0 0" fill="#f27281"/><path d="m256 60h30v302h-30zm0 0" fill="#e63950"/></svg>