<?xml version="1.0" encoding="iso-8859-1"?>
<!-- Generator: Adobe Illustrator 19.0.0, SVG Export Plug-In . SVG Version: 6.00 Build 0)  -->
<svg version="1.1" id="Layer_1" xmlns="http://www.w3.org/2000/svg" xmlns:xlink="http://www.w3.org/1999/xlink" x="0px" y="0px"
	 viewBox="0 0 512 512" style="enable-background:new 0 0 512 512;" xml:space="preserve">
<path style="fill:#6DC82A;" d="M217.043,233.739H16.696C7.479,233.739,0,226.266,0,217.043V16.696C0,7.473,7.479,0,16.696,0h200.348
	c9.217,0,16.696,7.473,16.696,16.696v200.348C233.739,226.266,226.261,233.739,217.043,233.739z"/>
<path style="fill:#61B325;" d="M217.043,0H116.87v233.739h100.174c9.217,0,16.696-7.473,16.696-16.696V16.696
	C233.739,7.473,226.261,0,217.043,0z"/>
<path style="fill:#6DC82A;" d="M495.304,233.739H294.957c-9.217,0-16.696-7.473-16.696-16.696V16.696
	C278.261,7.473,285.739,0,294.957,0h200.348C504.521,0,512,7.473,512,16.696v200.348C512,226.266,504.521,233.739,495.304,233.739z"
	/>
<path style="fill:#61B325;" d="M495.304,0H395.13v233.739h100.174c9.217,0,16.696-7.473,16.696-16.696V16.696
	C512,7.473,504.521,0,495.304,0z"/>
<path style="fill:#6DC82A;" d="M217.043,512H16.696C7.479,512,0,504.527,0,495.304V294.957c0-9.223,7.479-16.696,16.696-16.696
	h200.348c9.217,0,16.696,7.473,16.696,16.696v200.348C233.739,504.527,226.261,512,217.043,512z"/>
<path style="fill:#61B325;" d="M217.043,278.261H116.87V512h100.174c9.217,0,16.696-7.473,16.696-16.696V294.957
	C233.739,285.734,226.261,278.261,217.043,278.261z"/>
<path style="fill:#FF5023;" d="M495.304,512H294.957c-9.217,0-16.696-7.473-16.696-16.696V294.957
	c0-9.223,7.479-16.696,16.696-16.696h200.348c9.217,0,16.696,7.473,16.696,16.696v200.348C512,504.527,504.521,512,495.304,512z"/>
<path style="fill:#CD2A00;" d="M495.304,278.261H395.13V512h100.174c9.217,0,16.696-7.473,16.696-16.696V294.957
	C512,285.734,504.521,278.261,495.304,278.261z"/>
<path style="fill:#FFFFFF;" d="M150.261,100.174h-16.696V83.478c0-9.223-7.479-16.696-16.696-16.696s-16.696,7.473-16.696,16.696
	v16.696H83.478c-9.217,0-16.696,7.473-16.696,16.696s7.479,16.696,16.696,16.696h16.696v16.696c0,9.223,7.479,16.696,16.696,16.696
	s16.696-7.473,16.696-16.696v-16.696h16.696c9.217,0,16.696-7.473,16.696-16.696S159.478,100.174,150.261,100.174z"/>
<path style="fill:#FFE6B3;" d="M133.565,150.261v-16.696h16.696c9.217,0,16.696-7.473,16.696-16.696s-7.479-16.696-16.696-16.696
	h-16.696V83.478c0-9.223-7.479-16.696-16.696-16.696v100.174C126.087,166.957,133.565,159.484,133.565,150.261z"/>
<path style="fill:#FFFFFF;" d="M428.522,133.565h-66.783c-9.217,0-16.696-7.473-16.696-16.696s7.479-16.696,16.696-16.696h66.783
	c9.217,0,16.696,7.473,16.696,16.696S437.739,133.565,428.522,133.565z"/>
<path style="fill:#FFE6B3;" d="M428.522,100.174H395.13v33.391h33.391c9.217,0,16.696-7.473,16.696-16.696
	S437.739,100.174,428.522,100.174z"/>
<path style="fill:#FFFFFF;" d="M428.522,378.435h-66.783c-9.217,0-16.696-7.473-16.696-16.696s7.479-16.696,16.696-16.696h66.783
	c9.217,0,16.696,7.473,16.696,16.696S437.739,378.435,428.522,378.435z"/>
<path style="fill:#FFE6B3;" d="M428.522,345.043H395.13v33.391h33.391c9.217,0,16.696-7.473,16.696-16.696
	S437.739,345.043,428.522,345.043z"/>
<path style="fill:#FFFFFF;" d="M428.522,445.217h-66.783c-9.217,0-16.696-7.473-16.696-16.696s7.479-16.696,16.696-16.696h66.783
	c9.217,0,16.696,7.473,16.696,16.696S437.739,445.217,428.522,445.217z"/>
<path style="fill:#FFE6B3;" d="M428.522,411.826H395.13v33.391h33.391c9.217,0,16.696-7.473,16.696-16.696
	S437.739,411.826,428.522,411.826z"/>
<path style="fill:#FFFFFF;" d="M152.282,359.718c-6.521-6.521-17.087-6.521-23.609,0l-11.804,11.804l-11.804-11.804
	c-6.521-6.521-17.087-6.521-23.609,0c-6.521,6.516-6.521,17.092,0,23.609l11.804,11.804l-11.804,11.804
	c-6.521,6.516-6.521,17.092,0,23.609c3.261,3.261,7.533,4.892,11.804,4.892s8.544-1.631,11.804-4.892l11.805-11.804l11.804,11.804
	c3.261,3.261,7.533,4.892,11.804,4.892s8.544-1.631,11.804-4.892c6.521-6.516,6.521-17.092,0-23.609l-11.803-11.804l11.804-11.804
	C158.805,376.81,158.805,366.234,152.282,359.718z"/>
<path style="fill:#FFE6B3;" d="M128.673,430.543c3.261,3.261,7.533,4.892,11.804,4.892s8.544-1.631,11.804-4.892
	c6.521-6.516,6.521-17.092,0-23.609l-11.803-11.804l11.804-11.804c6.521-6.516,6.521-17.092,0-23.609
	c-6.521-6.521-17.087-6.521-23.609,0l-11.804,11.804v47.217L128.673,430.543z"/>
<g>
</g>
<g>
</g>
<g>
</g>
<g>
</g>
<g>
</g>
<g>
</g>
<g>
</g>
<g>
</g>
<g>
</g>
<g>
</g>
<g>
</g>
<g>
</g>
<g>
</g>
<g>
</g>
<g>
</g>
</svg>
