<svg height="464pt" viewBox="0 0 464 464" width="464pt" xmlns="http://www.w3.org/2000/svg"><path d="m280 0c-48.601562 0-88 39.398438-88 88 .007812 31.792969 5.140625 63.375 15.199219 93.535156l.800781 2.464844v24h144v-24l.800781-2.464844c10.058594-30.160156 15.191407-61.742187 15.199219-93.535156 0-48.601562-39.398438-88-88-88zm0 0" fill="#fd9a30"/><path d="m280 0c-8.117188.015625-16.195312 1.160156-24 3.398438 37.84375 10.730468 63.972656 45.265624 64 84.601562-.007812 31.792969-5.140625 63.375-15.199219 93.535156l-.800781 2.464844v24h48v-24l.800781-2.464844c10.058594-30.160156 15.191407-61.742187 15.199219-93.535156 0-48.601562-39.398438-88-88-88zm0 0" fill="#f28e22"/><path d="m424 208h16v24h-16zm0 0" fill="#f79d1e"/><path d="m0 272h464v32h-464zm0 0" fill="#bf7341"/><path d="m0 304h464v160h-464zm0 0" fill="#bf7341"/><path d="m320 176h-16v-5.464844c19.535156-9.246094 31.992188-28.921875 32-50.535156v-56l-112 24v32c.007812 21.613281 12.464844 41.289062 32 50.535156v5.464844h-16c-26.507812 0-48 21.492188-48 48v48h176v-48c0-26.507812-21.492188-48-48-48zm0 0" fill="#fec9a3"/><path d="m320 176h-8l-32 40-32-40h-8c-26.507812 0-48 21.492188-48 48v48h176v-48c0-26.507812-21.492188-48-48-48zm0 0" fill="#4398d1"/><path d="m16 128h128c8.835938 0 16 7.164062 16 16v80c0 8.835938-7.164062 16-16 16h-128c-8.835938 0-16-7.164062-16-16v-80c0-8.835938 7.164062-16 16-16zm0 0" fill="#4398d1"/><path d="m432 224c17.671875 0 32 14.328125 32 32v16h-64v-16c0-17.671875 14.328125-32 32-32zm0 0" fill="#ffc14d"/><path d="m432 224c-4.117188.015625-8.191406.832031-12 2.398438 12.066406 4.882812 19.972656 16.585937 20 29.601562v16h24v-16c0-17.671875-14.328125-32-32-32zm0 0" fill="#ffb730"/><path d="m24 360h16v48h-16zm0 0" fill="#db9160"/><path d="m24 328h16v16h-16zm0 0" fill="#db9160"/><path d="m0 296h464v24h-464zm0 0" fill="#965735"/><path d="m23.121094 240h120.878906c8.835938 0 16-7.164062 16-16v-58.015625c-36.800781 39.6875-99.359375 62.945313-136.878906 74.015625zm0 0" fill="#388bc2"/><path d="m80 272h-48l24-64h48zm0 0" fill="#5fa5d4"/><path d="m248 96h16v16h-16zm0 0" fill="#7a4321"/><path d="m296 96h16v16h-16zm0 0" fill="#7a4321"/><path d="m280 152c-13.253906 0-24-10.746094-24-24h16c0 4.417969 3.582031 8 8 8s8-3.582031 8-8h16c0 13.253906-10.746094 24-24 24zm0 0" fill="#fa996b"/><path d="m208.414062 272h159.585938v-48c.007812-11.417969-4.070312-22.460938-11.503906-31.128906-40.183594 47.609375-102.710938 69.3125-148.082032 79.128906zm0 0" fill="#388bc2"/><g fill="#2e7db3"><path d="m320 232h16v40h-16zm0 0"/><path d="m224 232h16v40h-16zm0 0"/><path d="m288 272h-16v-48c0-4.417969 3.582031-8 8-8s8 3.582031 8 8zm0 0"/></g></svg>