<svg height="480pt" viewBox="0 -31 480.42495 480" width="480pt" xmlns="http://www.w3.org/2000/svg"><path d="m24 368.210938h70.398438l102.402343 45.601562c17.597657 8 37.597657 6.398438 52.800781-4l213.597657-137.601562c17.601562-11.199219 22.402343-34.398438 11.199219-51.199219-10.398438-16-31.199219-21.597657-48.796876-12.800781l-179.203124 92c-3.199219 1.601562-7.199219.800781-9.597657-1.597657l-18.402343-18.402343 12-12c15.203124-16 15.203124-40.796876 0-56.796876l-33.597657-33.601562c-24.800781-24.800781-65.601562-24.800781-90.402343 0l-12.796876 14.398438h-69.601562c-13.601562 0-24 10.402343-24 24v128c0 13.601562 10.398438 24 24 24zm94.398438-177.597657c18.402343-18.402343 48.800781-18.402343 68 0l33.601562 33.597657c9.601562 9.601562 9.601562 24.800781 0 33.601562l-12 12-50.398438-50.398438-11.203124 11.199219 80 80c7.203124 7.199219 18.402343 8.800781 28 4l179.203124-92.800781c10.398438-5.601562 23.199219-1.601562 28.796876 8.800781 4.800781 9.597657 1.601562 21.597657-7.199219 28l-213.597657 137.597657c-11.203124 7.203124-25.601562 8.800781-37.601562 3.203124l-107.199219-48v-139.203124zm-102.398438 25.597657c0-4.796876 3.199219-8 8-8h56v144h-56c-4.800781 0-8-3.199219-8-8zm0 0"/><path d="m112 16.210938h336v168h16v-184h-368v152h16zm0 0"/><path d="m432 184.210938v-136h-16v-16h-272v16h-16v96h16v-80c8.800781 0 16-7.199219 16-16h240c0 8.800781 7.199219 16 16 16v120zm0 0"/><path d="m256 104.210938h16v16h-16zm0 0"/><path d="m272 184.210938h16v16h-16zm0 0"/><path d="m233.839844 187.089844 71.929687-87.925782 12.386719 10.128907-71.933594 87.929687zm0 0"/><path d="m368 152.210938c0-48.796876-39.199219-88-88-88-44.800781 0-83.199219 34.402343-87.199219 79.203124l16 1.597657c4-39.199219 39.199219-68.800781 79.199219-64.800781 39.199219 4 68.800781 39.203124 64.800781 79.203124-4 36.796876-34.402343 64.796876-72 64.796876v16c48 0 87.199219-39.199219 87.199219-88zm0 0"/></svg>