<svg id="Layer_5" enable-background="new 0 0 64 64" height="512" viewBox="0 0 64 64" width="512" xmlns="http://www.w3.org/2000/svg"><path d="m35 45h2v2h-2z"/><path d="m27 45h2v2h-2z"/><path d="m31 45h2v2h-2z"/><path d="m32 19c-5.514 0-10 4.486-10 10s4.486 10 10 10 10-4.486 10-10-4.486-10-10-10zm0 18c-.313 0-.983-1.023-1.462-3h2.924c-.479 1.977-1.149 3-1.462 3zm-1.819-5c-.077-.614-.134-1.277-.161-2h3.962c-.027.723-.085 1.386-.161 2zm1.819-11c.313 0 .983 1.023 1.462 3h-2.924c.479-1.977 1.149-3 1.462-3zm1.819 5c.077.614.134 1.277.161 2h-3.962c.027-.723.085-1.386.161-2zm-5.8 2h-3.95c.088-.698.263-1.369.52-2h3.579c-.074.657-.125 1.327-.149 2zm-3.95 2h3.95c.024.673.075 1.343.149 2h-3.579c-.256-.631-.432-1.302-.52-2zm11.912 0h3.95c-.088.698-.263 1.369-.52 2h-3.579c.074-.657.125-1.327.149-2zm0-2c-.024-.673-.075-1.343-.149-2h3.579c.256.631.432 1.302.52 2zm2.254-4h-2.719c-.192-.919-.44-1.771-.752-2.498 1.373.508 2.57 1.377 3.471 2.498zm-8.999-2.498c-.312.727-.56 1.579-.752 2.498h-2.719c.901-1.121 2.098-1.99 3.471-2.498zm-3.471 12.498h2.719c.192.919.44 1.771.752 2.498-1.373-.508-2.57-1.377-3.471-2.498zm8.999 2.498c.312-.727.56-1.579.752-2.498h2.719c-.901 1.121-2.098 1.99-3.471 2.498z"/><path d="m63 15.764v-5.527l-2.625-.718c-.086-.229-.181-.457-.286-.684l1.35-2.367-3.908-3.907-2.365 1.351c-.226-.104-.455-.2-.685-.286l-.718-2.626h-5.526l-.718 2.625c-.23.086-.459.182-.685.286l-2.365-1.351-3.908 3.907 1.35 2.367c-.104.227-.2.455-.286.684l-2.625.718v.764h-14v-10h-24v20h4v11.522c-2.41 1.616-4 4.364-4 7.478v.193c0 2.036.7 4.032 1.972 5.623l2.028 2.535v1.649c0 2.757 2.243 5 5 5 2.414 0 4.434-1.721 4.899-4h6.82l-1.5 6h-3.219c-1.654 0-3 1.346-3 3v3h36v-3c0-1.654-1.346-3-3-3h-3.219l-1.5-6h11.719c2.414 0 4.434-1.721 4.899-4h1.101c1.654 0 3-1.346 3-3v-8c0-1.654-1.346-3-3-3h-1v-11.029l2.439-2.439-1.35-2.367c.104-.227.2-.455.286-.684zm-10 15.822-1.879-1.88c-.45-.448-1.072-.706-1.707-.706-1.331 0-2.414 1.083-2.414 2.414v1.586h-1c-1.654 0-3 1.346-3 3v5h-24.038c.024-.268.038-.537.038-.807v-.193c0-4.625-3.507-8.442-8-8.941v-10.059h14v-4h16.842c.024.055.044.11.069.165l-1.35 2.367 3.908 3.907 2.365-1.351c.226.104.455.2.685.286l.718 2.626h4.763zm-30-13.55-6.352-4.62c.124-.132.242-.27.352-.416l6-8zm-7.6-6.236c-.563.752-1.461 1.2-2.4 1.2s-1.837-.448-2.4-1.199l-6.601-8.801h18.001zm-6.4 1.201c.11.146.228.284.352.416l-6.352 4.619v-13.036zm2.104 1.615c.596.245 1.239.384 1.896.384s1.299-.139 1.896-.384l6.029 4.384h-15.85zm27.896-1.616v2h-14v-2zm-32 8h2v10.059c-.694.077-1.362.24-2 .466zm-2.466 23.566c-.989-1.236-1.534-2.79-1.534-4.373v-.193c0-3.859 3.14-7 7-7s7 3.141 7 7v.193c0 1.583-.545 3.137-1.534 4.373l-1.946 2.434h-2.52v-4.184c1.161-.414 2-1.514 2-2.816 0-1.654-1.346-3-3-3s-3 1.346-3 3c0 1.302.839 2.402 2 2.816v4.184h-2.52zm4.466-4.566c0-.552.449-1 1-1s1 .448 1 1-.449 1-1 1-1-.448-1-1zm1 13c-1.654 0-3-1.346-3-3v-1h6v1c0 1.654-1.346 3-3 3zm38 7v1h-32v-1c0-.552.449-1 1-1h30c.551 0 1 .448 1 1zm-6.281-3h-19.438l1.5-6h16.438zm12.281-8h-39v-.649l2.028-2.534c.674-.843 1.182-1.801 1.515-2.816h24.457v1c0 1.654 1.346 3 3 3h10.816c-.414 1.16-1.514 1.999-2.816 1.999zm7-13v8c0 .552-.449 1-1 1h-14c-.551 0-1-.448-1-1v-8c0-.552.449-1 1-1h3v-3.586c0-.337.467-.531.707-.293l3.879 3.879h6.414c.551 0 1 .448 1 1zm-6-3v-10.842c.055-.024.111-.044.166-.069l1.834 1.047v9.864zm3.807-18.163-.162.524c-.142.459-.334.921-.572 1.371l-.256.485 1.129 1.979-1.75 1.749-1.979-1.13-.486.258c-.445.236-.906.429-1.369.572l-.525.161-.6 2.194h-2.474l-.6-2.193-.525-.161c-.463-.144-.924-.336-1.369-.572l-.486-.258-1.979 1.13-1.75-1.749 1.129-1.979-.256-.485c-.238-.45-.43-.912-.572-1.371l-.162-.524-2.193-.602v-2.473l2.193-.601.162-.524c.142-.459.334-.921.572-1.371l.256-.485-1.129-1.979 1.75-1.749 1.979 1.13.486-.258c.445-.236.906-.429 1.369-.572l.525-.161.6-2.193h2.474l.6 2.193.525.161c.463.144.924.336 1.369.572l.486.258 1.979-1.13 1.75 1.749-1.129 1.979.256.485c.238.45.43.912.572 1.371l.162.524 2.193.602v2.473z"/><path d="m51 7c-3.309 0-6 2.691-6 6s2.691 6 6 6 6-2.691 6-6-2.691-6-6-6zm0 10c-2.206 0-4-1.794-4-4s1.794-4 4-4 4 1.794 4 4-1.794 4-4 4z"/><path d="m47 41h8v2h-8z"/><path d="m57 41h2v2h-2z"/><path d="m47 37h12v2h-12z"/></svg>