<svg id="_x33_0" enable-background="new 0 0 64 64" height="512" viewBox="0 0 64 64" width="512" xmlns="http://www.w3.org/2000/svg"><circle cx="32" cy="14" fill="#f0bc5e" r="9"/><path d="m37 35v-10.102c-1.524.701-3.213 1.102-5 1.102s-3.476-.401-5-1.102v10.102h-5l10 10 10-10z" fill="#f0bc5e"/><path d="m55 53v-32c0-2.206-1.794-4-4-4h-6.363c.229-.965.363-1.966.363-3 0-7.168-5.832-13-13-13s-13 5.832-13 13c0 1.034.134 2.035.363 3h-6.363c-2.206 0-4 1.794-4 4v32h-4v6c0 2.206 1.794 4 4 4h46c2.206 0 4-1.794 4-4v-6zm-19.233-44c.539 1.215.958 2.562 1.134 4h-9.803c.177-1.438.595-2.785 1.134-4zm-6.494-2c.985-1.636 2.056-2.879 2.727-3.588.671.709 1.742 1.952 2.727 3.588zm13.676 6h-4.027c-.148-1.43-.509-2.769-.982-4h3.846c.626 1.221 1.034 2.57 1.163 4zm-10.949 11.616c-1.224-1.172-2.228-2.378-3.002-3.616h6.004c-.774 1.238-1.778 2.444-3.002 3.616zm5.323-3.616h3.155c-1.455 1.76-3.452 3.048-5.727 3.637 1.046-1.179 1.914-2.39 2.572-3.637zm-8.075 3.637c-2.275-.589-4.271-1.878-5.726-3.637h3.155c.658 1.247 1.526 2.458 2.571 3.637zm-1.295-5.637c-.548-1.305-.852-2.64-.918-4h9.931c-.066 1.36-.37 2.695-.918 4zm-2.875-6h-4.027c.13-1.43.537-2.779 1.164-4h3.846c-.474 1.231-.835 2.57-.983 4zm-.044 2c.056 1.362.308 2.697.769 4h-3.589c-.626-1.221-1.034-2.57-1.164-4zm6.966 12c3.675 0 6.992-1.54 9.359-4h7.641v26h-34v-26h7.641c2.367 2.46 5.684 4 9.359 4zm9.786-8h-3.589c.462-1.303.714-2.638.769-4h3.983c-.129 1.43-.537 2.779-1.163 4zm-1.307-12h-3.441c-.781-1.486-1.672-2.728-2.45-3.68 2.343.568 4.4 1.878 5.891 3.68zm-11.067-3.68c-.778.952-1.669 2.194-2.45 3.68h-3.441c1.491-1.802 3.548-3.112 5.891-3.68zm-18.412 17.68c0-1.103.897-2 2-2h7.003c.293.702.653 1.367 1.06 2h-6.063c-1.103 0-2 .897-2 2v26c0 1.103.897 2 2 2h34c1.103 0 2-.897 2-2v-26c0-1.103-.897-2-2-2h-6.063c.407-.633.767-1.298 1.06-2h7.003c1.103 0 2 .897 2 2v32h-42zm29.382 34-1 2h-14.764l-1-2zm16.618 4c0 1.103-.897 2-2 2h-46c-1.103 0-2-.897-2-2v-4h14.382l2 4h17.236l2-4h14.382z"/><path d="m19 45h26v2h-26z"/><path d="m15 7h2v2h-2z"/><path d="m15 11h2v4h-2z"/><path d="m11 1h2v2h-2z"/><path d="m11 5h2v10h-2z"/><path d="m47 7h2v2h-2z"/><path d="m47 11h2v4h-2z"/><path d="m51 1h2v2h-2z"/><path d="m51 5h2v10h-2z"/><path d="m45 57h2v2h-2z"/><path d="m49 57h2v2h-2z"/><path d="m53 57h2v2h-2z"/></svg>