<?xml version="1.0"?>
<svg xmlns="http://www.w3.org/2000/svg" height="512px" viewBox="0 0 480 480" width="512px"><g><path d="m72 200c-22.089844 0-40-17.910156-40-40s17.910156-40 40-40 40 17.910156 40 40c-.027344 22.082031-17.917969 39.972656-40 40zm0-64c-13.253906 0-24 10.746094-24 24s10.746094 24 24 24 24-10.746094 24-24-10.746094-24-24-24zm0 0" data-original="#000000" class="active-path" data-old_color="#000000" fill="#FFFFFF"/><path d="m40 208c-22.082031.027344-39.9726562 17.917969-40 40v88h16v144h96v-144h16v-80h64c13.253906 0 24-10.746094 24-24v-24zm56 256h-24v-96h-16v96h-24v-128h64zm104-232c0 4.417969-3.582031 8-8 8h-80v80h-96v-72c0-13.253906 10.746094-24 24-24h160zm0 0" data-original="#000000" class="active-path" data-old_color="#000000" fill="#FFFFFF"/><path d="m144 0v200h16v-120h304v256h-304v-72h-16v88h336v-352zm16 64v-48h304v48zm0 0" data-original="#000000" class="active-path" data-old_color="#000000" fill="#FFFFFF"/><path d="m176 32h16v16h-16zm0 0" data-original="#000000" class="active-path" data-old_color="#000000" fill="#FFFFFF"/><path d="m208 32h16v16h-16zm0 0" data-original="#000000" class="active-path" data-old_color="#000000" fill="#FFFFFF"/><path d="m240 32h16v16h-16zm0 0" data-original="#000000" class="active-path" data-old_color="#000000" fill="#FFFFFF"/><path d="m168 200h16v-56h256v144h-256v-24h-16v40h288v-176h-288zm0 0" data-original="#000000" class="active-path" data-old_color="#000000" fill="#FFFFFF"/><path d="m272 270.398438 87.097656-54.398438-87.097656-54.398438zm16-80 40.902344 25.601562-40.902344 25.601562zm0 0" data-original="#000000" class="active-path" data-old_color="#000000" fill="#FFFFFF"/><path d="m168 104h128v16h-128zm0 0" data-original="#000000" class="active-path" data-old_color="#000000" fill="#FFFFFF"/></g> </svg>
