<svg id="_x33_0" enable-background="new 0 0 64 64" height="512" viewBox="0 0 64 64" width="512" xmlns="http://www.w3.org/2000/svg"><path d="m41 55h-2.28l-1.772-5.316-1.896.633 1.561 4.683h-15.226l1.561-4.684-1.896-.633-1.772 5.317h-2.28c-2.757 0-5 2.243-5 5v3h34v-3c0-2.757-2.243-5-5-5zm3 6h-30v-1c0-1.654 1.346-3 3-3h24c1.654 0 3 1.346 3 3z"/><path d="m39 20.618v-15.236l15.236 7.618z" fill="#f0bc5e"/><path d="m50 32v9c0 .552-.448 1-1 1h-40c-.552 0-1-.448-1-1v-26c0-.552.448-1 1-1h19v-7h-23c-2.206 0-4 1.794-4 4v36c0 2.206 1.794 4 4 4h48c2.206 0 4-1.794 4-4v-15z" fill="#f0bc5e"/><path d="m33 27h24v2h-24z"/><path d="m60 1h-30c-1.654 0-3 1.346-3 3v9h-18c-1.103 0-2 .897-2 2v26c0 1.103.897 2 2 2h40c1.103 0 2-.897 2-2v-8h9c1.654 0 3-1.346 3-3v-26c0-1.654-1.346-3-3-3zm-30 2h30c.552 0 1 .449 1 1v19h-32v-19c0-.551.448-1 1-1zm19 38h-40v-26h18v15c0 1.654 1.346 3 3 3h19zm11-10h-30c-.552 0-1-.449-1-1v-5h32v5c0 .551-.448 1-1 1z"/><path d="m13 33h12v-10h-4v-6h-10v10h2zm10-8v6h-8v-4h6v-2zm-10-6h6v6h-6z"/><path d="m11 37h32v2h-32z"/><path d="m45 37h2v2h-2z"/><path d="m43 45h2v2h-2z"/><path d="m39 45h2v2h-2z"/><path d="m35 45h2v2h-2z"/></svg>