<svg id="_x33_0" enable-background="new 0 0 64 64" height="512" viewBox="0 0 64 64" width="512" xmlns="http://www.w3.org/2000/svg"><g fill="#f0bc5e"><path d="m39 13h20v5h-20z"/><path d="m21 46h22v13h-22z"/><path d="m35 39h-16c-1.103 0-2-.897-2-2v-22c0-1.103.897-2 2-2h16c1.103 0 2 .897 2 2v22c0 1.103-.897 2-2 2z"/></g><path d="m60 1h-44c-1.654 0-3 1.346-3 3v23h-9c-1.654 0-3 1.346-3 3v30c0 1.654 1.346 3 3 3h40c1.654 0 3-1.346 3-3v-17h13c1.654 0 3-1.346 3-3v-36c0-1.654-1.346-3-3-3zm-44 2h44c.551 0 1 .448 1 1v5h-46v-5c0-.552.449-1 1-1zm0 40h1v2h-10v-12h6v7c0 1.654 1.346 3 3 3zm29 17c0 .552-.449 1-1 1h-40c-.551 0-1-.448-1-1v-30c0-.552.449-1 1-1h9v2h-6c-1.103 0-2 .897-2 2v12c0 1.103.897 2 2 2h10c1.103 0 2-.897 2-2v-2h26zm15-19h-44c-.551 0-1-.448-1-1v-29h46v29c0 .552-.449 1-1 1z"/><path d="m17 5h2v2h-2z"/><path d="m21 5h2v2h-2z"/><path d="m25 5h2v2h-2z"/><path d="m35 5h24v2h-24z"/><path d="m53.303 29 4.5-3-4.5-3h-8.605l-4.5 3 4.5 3zm-5.303-2v-2h2v2zm6.197-1-1.5 1h-.697v-2h.697zm-8.894-1h.697v2h-.697l-1.5-1z"/><path d="m42 33c-1.654 0-3 1.346-3 3s1.346 3 3 3c1.302 0 2.402-.839 2.816-2h14.184v-2h-14.184c-.414-1.161-1.514-2-2.816-2zm0 4c-.551 0-1-.448-1-1s.449-1 1-1 1 .448 1 1-.449 1-1 1z"/><path d="m39 13h4v2h-4z"/><path d="m45 13h14v2h-14z"/><path d="m39 17h20v2h-20z"/><path d="m25 20v9.184c-.314-.112-.648-.184-1-.184-1.654 0-3 1.346-3 3s1.346 3 3 3 3-1.346 3-3v-7h6v-2h-6v-3c0-.552.449-1 1-1h5v-2h-5c-1.654 0-3 1.346-3 3zm-1 13c-.551 0-1-.448-1-1s.449-1 1-1 1 .448 1 1-.449 1-1 1z"/><path d="m21 45h22v2h-22z"/><path d="m25 49h18v2h-18z"/><path d="m21 49h2v2h-2z"/><path d="m21 53h22v2h-22z"/><path d="m41 57h2v2h-2z"/><path d="m21 57h18v2h-18z"/><path d="m17 49h-10c-1.103 0-2 .897-2 2v6c0 1.103.897 2 2 2h10c1.103 0 2-.897 2-2v-6c0-1.103-.897-2-2-2zm-10 8v-6h10l.001 6z"/></svg>