<?xml version="1.0"?>
<svg xmlns="http://www.w3.org/2000/svg" id="floatie" enable-background="new 0 0 300 300" height="512px" viewBox="0 0 300 300" width="512px"><g><g><path d="m206.368 66.32c-.001-.001-.002-.001-.003-.002-4.747-3.203-9.791-6.015-14.995-8.356-2.016-.91-4.383-.009-5.289 2.006-.907 2.015-.009 4.383 2.006 5.289 3.627 1.633 7.17 3.515 10.575 5.612l-21.487 34.711c-8.203-5.044-17.541-7.704-27.175-7.704-9.669 0-18.982 2.648-27.18 7.696l-21.484-34.706c14.615-9.009 31.358-13.753 48.664-13.753 5.206 0 10.429.435 15.525 1.292 2.177.369 4.242-1.103 4.608-3.28.367-2.179-1.102-4.242-3.281-4.608-5.533-.932-11.203-1.403-16.853-1.403-20.195 0-39.686 5.949-56.365 17.205-.001 0-.002.001-.003.001-27.875 18.813-44.517 50.096-44.517 83.68 0 32.688 15.972 63.496 42.726 82.41 17.096 12.087 37.208 18.476 58.16 18.476s41.063-6.389 58.16-18.475c26.754-18.915 42.726-49.723 42.726-82.411 0-33.584-16.642-64.867-44.518-83.68zm-31.521 47.275c.2.137.411.245.625.342.168.18.353.347.558.497 11.33 8.308 18.094 21.604 18.094 35.566 0 13.427-6.028 25.968-16.539 34.406-.001 0-.001.001-.002.001-7.917 6.356-17.455 9.717-27.583 9.717-10.125 0-19.663-3.36-27.582-9.715-.001-.001-.001-.001-.002-.002-10.512-8.439-16.541-20.98-16.541-34.407 0-13.963 6.764-27.259 18.094-35.566 7.635-5.599 16.636-8.558 26.03-8.558 8.882 0 17.474 2.669 24.848 7.719zm-117.733 36.405c0-29.53 13.984-57.121 37.599-74.634l21.622 34.929c-11.614 9.865-18.459 24.441-18.459 39.705 0 14.678 6.094 28.457 16.835 38.328l-21.674 35.012c-22.57-17.559-35.923-44.664-35.923-73.34zm92.886 92.886c-18.032 0-35.386-5.143-50.428-14.903l21.462-34.669c8.581 5.778 18.507 8.81 28.967 8.81 10.461 0 20.388-3.032 28.967-8.809l21.463 34.671c-15.044 9.761-32.4 14.9-50.431 14.9zm56.956-19.554-21.675-35.014c10.74-9.87 16.843-23.64 16.843-38.317 0-15.267-6.835-29.853-18.451-39.718l21.62-34.926c23.615 17.513 37.593 45.112 37.593 74.644 0 28.674-13.36 55.771-35.93 73.331z" data-original="#000000" class="active-path" data-old_color="#000000" fill="#FFFFFF"/></g></g> </svg>
