<?xml version="1.0" encoding="iso-8859-1"?>
<!-- Generator: Adobe Illustrator 19.0.0, SVG Export Plug-In . SVG Version: 6.00 Build 0)  -->
<svg version="1.1" id="Capa_1" xmlns="http://www.w3.org/2000/svg" xmlns:xlink="http://www.w3.org/1999/xlink" x="0px" y="0px"
	 viewBox="0 0 496 496" style="enable-background:new 0 0 496 496;" xml:space="preserve">
<g>
	<g>
		<path d="M386.832,317.096L312,290.36v-30.144c9.64-10.24,16.84-22.76,20.712-36.688C352.528,221.16,368,204.44,368,184v-79.856
			c14.264-11.92,26.264-26.792,34.96-44.168L412.944,40h-38c-29.216,0-57.752-8.184-82.512-23.664
			C275.328,5.648,255.528,0,235.176,0h-1.304c-28.384,0-55.056,11.072-75.104,31.168c-20.04,20.088-31.032,46.776-30.96,75.136
			l0.192,77.72c0.008,20.432,15.48,37.136,35.288,39.504c3.872,13.928,11.072,26.448,20.712,36.688v30.144l-74.832,26.736
			C86.936,325.032,72,346.216,72,369.832V496h352V369.832C424,346.216,409.064,325.032,386.832,317.096z M320,184h-40
			c-4.408,0-8-3.584-8-8v-13.768c2.016-1.32,3.92-2.832,5.664-4.576c3.64-3.648,8.488-5.656,13.648-5.656H320V184z M320,136h-28.688
			c-9.44,0-18.304,3.672-24.976,10.344c-3.64,3.648-8.488,5.656-13.648,5.656h-9.376c-5.16,0-10.008-2.008-13.648-5.656
			C222.992,139.672,214.128,136,204.688,136H176v-21.752l70.592,17.64c24.288,6.088,50.288,5.216,73.408-1.768V136z M176.008,152
			h28.68c5.16,0,10.008,2.008,13.656,5.656c1.744,1.744,3.648,3.256,5.664,4.576V176c0,4.416-3.592,8-8,8h-40V152z M335.664,206.632
			c0.168-2.2,0.336-4.392,0.336-6.632v-38.528c9.288,3.312,16,12.112,16,22.528C352,194.536,345.128,203.416,335.664,206.632z
			 M352,152.208c-4.672-3.536-10.056-6.184-16-7.392v-20.624c5.544-2.464,10.848-5.392,16-8.568V152.208z M144,184
			c0-10.416,6.712-19.216,16-22.528V200c0,2.24,0.168,4.432,0.336,6.632C150.872,203.416,144,194.536,144,184z M160,93.752v51.056
			c-5.984,1.216-11.384,3.888-16.08,7.464l-0.112-46.016c-0.064-24.088,9.272-46.736,26.288-63.784
			C187.12,25.4,209.768,16,233.872,16h1.304c17.352,0,34.216,4.808,48.776,13.896C311.256,46.976,342.728,56,374.944,56H387
			c-21.224,39.568-61.92,64-107.056,64c-9.936,0-19.848-1.216-29.472-3.624L160,93.752z M176,200h40c13.232,0,24-10.768,24-24v-8.32
			c1.104,0.104,2.184,0.32,3.312,0.32h9.376c1.128,0,2.208-0.216,3.312-0.32V176c0,13.232,10.768,24,24,24h40
			c0,39.704-32.304,72-72,72S176,239.704,176,200z M296,273.664v17.696l-48,27.432l-48-27.432v-17.696
			C213.816,282.696,230.288,288,248,288C265.712,288,282.184,282.696,296,273.664z M136,480H88v-48h48V480z M408,480h-48v-48h48V480
			z M408,416h-48v-48h-16v112H152V368h-16v48H88v-46.168c0-16.864,10.664-32,26.544-37.672l76.68-27.384L248,337.208l56.768-32.44
			l76.68,27.384c15.888,5.68,26.552,20.816,26.552,37.68V416z"/>
	</g>
</g>
<g>
	<g>
		<path d="M264,216c0,8.824-7.176,16-16,16c-8.824,0-16-7.176-16-16h-16c0,17.648,14.352,32,32,32s32-14.352,32-32H264z"/>
	</g>
</g>
<g>
	<g>
		<rect x="32" y="232" width="16" height="24"/>
	</g>
</g>
<g>
	<g>
		<rect y="264" width="24" height="16"/>
	</g>
</g>
<g>
	<g>
		<rect x="32" y="288" width="16" height="24"/>
	</g>
</g>
<g>
	<g>
		<rect x="56" y="264" width="24" height="16"/>
	</g>
</g>
<g>
	<g>
		<rect x="448" y="120" width="16" height="24"/>
	</g>
</g>
<g>
	<g>
		<rect x="416" y="152" width="24" height="16"/>
	</g>
</g>
<g>
	<g>
		<rect x="448" y="176" width="16" height="24"/>
	</g>
</g>
<g>
	<g>
		<rect x="472" y="152" width="24" height="16"/>
	</g>
</g>
<g>
</g>
<g>
</g>
<g>
</g>
<g>
</g>
<g>
</g>
<g>
</g>
<g>
</g>
<g>
</g>
<g>
</g>
<g>
</g>
<g>
</g>
<g>
</g>
<g>
</g>
<g>
</g>
<g>
</g>
</svg>
