<svg xmlns="http://www.w3.org/2000/svg" xmlns:xlink="http://www.w3.org/1999/xlink" version="1.1" style="enable-background:new 0 0 480 480;" xml:space="preserve" width="480" height="480"><rect id="backgroundrect" width="100%" height="100%" x="0" y="0" fill="none" stroke="none"/>







































<g class="currentLayer" style=""><title>Layer 1</title><g id="svg_1" class="selected" fill="#ffffff" fill-opacity="1">
	<g id="svg_2" fill="#ffffff" fill-opacity="1">
		<path d="M48,328c-17.673,0-32,14.327-32,32c0,17.673,14.327,32,32,32s32-14.327,32-32C80,342.327,65.673,328,48,328z M48,376    c-8.837,0-16-7.163-16-16s7.163-16,16-16s16,7.163,16,16S56.837,376,48,376z" id="svg_3" fill="#ffffff" fill-opacity="1"/>
	</g>
</g><g id="svg_4" class="selected" fill="#ffffff" fill-opacity="1">
	<g id="svg_5" fill="#ffffff" fill-opacity="1">
		<path d="M48,400c-26.51,0-48,21.49-48,48v24c0,4.418,3.582,8,8,8s8-3.582,8-8v-24c0-17.673,14.327-32,32-32s32,14.327,32,32v24    c0,4.418,3.582,8,8,8s8-3.582,8-8v-24C96,421.49,74.51,400,48,400z" id="svg_6" fill="#ffffff" fill-opacity="1"/>
	</g>
</g><g id="svg_7" class="selected" fill="#ffffff" fill-opacity="1">
	<g id="svg_8" fill="#ffffff" fill-opacity="1">
		<path d="M176,328c-17.673,0-32,14.327-32,32c0,17.673,14.327,32,32,32s32-14.327,32-32C208,342.327,193.673,328,176,328z M176,376    c-8.837,0-16-7.163-16-16s7.163-16,16-16s16,7.163,16,16S184.837,376,176,376z" id="svg_9" fill="#ffffff" fill-opacity="1"/>
	</g>
</g><g id="svg_10" class="selected" fill="#ffffff" fill-opacity="1">
	<g id="svg_11" fill="#ffffff" fill-opacity="1">
		<path d="M176,400c-26.51,0-48,21.49-48,48v24c0,4.418,3.582,8,8,8s8-3.582,8-8v-24c0-17.673,14.327-32,32-32s32,14.327,32,32v24    c0,4.418,3.582,8,8,8s8-3.582,8-8v-24C224,421.49,202.51,400,176,400z" id="svg_12" fill="#ffffff" fill-opacity="1"/>
	</g>
</g><g id="svg_13" class="selected" fill="#ffffff" fill-opacity="1">
	<g id="svg_14" fill="#ffffff" fill-opacity="1">
		<path d="M304,328c-17.673,0-32,14.327-32,32c0,17.673,14.327,32,32,32c17.673,0,32-14.327,32-32C336,342.327,321.673,328,304,328z     M304,376c-8.837,0-16-7.163-16-16s7.163-16,16-16s16,7.163,16,16S312.837,376,304,376z" id="svg_15" fill="#ffffff" fill-opacity="1"/>
	</g>
</g><g id="svg_16" class="selected" fill="#ffffff" fill-opacity="1">
	<g id="svg_17" fill="#ffffff" fill-opacity="1">
		<path d="M304,400c-26.51,0-48,21.49-48,48v24c0,4.418,3.582,8,8,8s8-3.582,8-8v-24c0-17.673,14.327-32,32-32    c17.673,0,32,14.327,32,32v24c0,4.418,3.582,8,8,8s8-3.582,8-8v-24C352,421.49,330.51,400,304,400z" id="svg_18" fill="#ffffff" fill-opacity="1"/>
	</g>
</g><g id="svg_19" class="selected" fill="#ffffff" fill-opacity="1">
	<g id="svg_20" fill="#ffffff" fill-opacity="1">
		<path d="M432,328c-17.673,0-32,14.327-32,32c0,17.673,14.327,32,32,32c17.673,0,32-14.327,32-32C464,342.327,449.673,328,432,328z     M432,376c-8.837,0-16-7.163-16-16s7.163-16,16-16s16,7.163,16,16S440.837,376,432,376z" id="svg_21" fill="#ffffff" fill-opacity="1"/>
	</g>
</g><g id="svg_22" class="selected" fill="#ffffff" fill-opacity="1">
	<g id="svg_23" fill="#ffffff" fill-opacity="1">
		<path d="M432,400c-26.499,0.026-47.974,21.501-48,48v24c0,4.418,3.582,8,8,8s8-3.582,8-8v-24c0-17.673,14.327-32,32-32    c17.673,0,32,14.327,32,32v24c0,4.418,3.582,8,8,8s8-3.582,8-8v-24C479.974,421.501,458.499,400.026,432,400z" id="svg_24" fill="#ffffff" fill-opacity="1"/>
	</g>
</g><g id="svg_25" class="selected" fill="#ffffff" fill-opacity="1">
	<g id="svg_26" fill="#ffffff" fill-opacity="1">
		<path d="M48,176c-17.673,0-32,14.327-32,32s14.327,32,32,32s32-14.327,32-32S65.673,176,48,176z M48,224c-8.837,0-16-7.163-16-16    s7.163-16,16-16s16,7.163,16,16S56.837,224,48,224z" id="svg_27" fill="#ffffff" fill-opacity="1"/>
	</g>
</g><g id="svg_28" class="selected" fill="#ffffff" fill-opacity="1">
	<g id="svg_29" fill="#ffffff" fill-opacity="1">
		<path d="M48,248c-26.51,0-48,21.49-48,48v24c0,4.418,3.582,8,8,8s8-3.582,8-8v-24c0-17.673,14.327-32,32-32s32,14.327,32,32v24    c0,4.418,3.582,8,8,8s8-3.582,8-8v-24C96,269.49,74.51,248,48,248z" id="svg_30" fill="#ffffff" fill-opacity="1"/>
	</g>
</g><g id="svg_31" class="selected" fill="#ffffff" fill-opacity="1">
	<g id="svg_32" fill="#ffffff" fill-opacity="1">
		<path d="M176,176c-17.673,0-32,14.327-32,32s14.327,32,32,32s32-14.327,32-32S193.673,176,176,176z M176,224    c-8.837,0-16-7.163-16-16s7.163-16,16-16s16,7.163,16,16S184.837,224,176,224z" id="svg_33" fill="#ffffff" fill-opacity="1"/>
	</g>
</g><g id="svg_34" class="selected" fill="#ffffff" fill-opacity="1">
	<g id="svg_35" fill="#ffffff" fill-opacity="1">
		<path d="M176,248c-26.51,0-48,21.49-48,48v24c0,4.418,3.582,8,8,8s8-3.582,8-8v-24c0-17.673,14.327-32,32-32s32,14.327,32,32v24    c0,4.418,3.582,8,8,8s8-3.582,8-8v-24C224,269.49,202.51,248,176,248z" id="svg_36" fill="#ffffff" fill-opacity="1"/>
	</g>
</g><g id="svg_37" class="selected" fill="#ffffff" fill-opacity="1">
	<g id="svg_38" fill="#ffffff" fill-opacity="1">
		<path d="M304,176c-17.673,0-32,14.327-32,32s14.327,32,32,32c17.673,0,32-14.327,32-32S321.673,176,304,176z M304,224    c-8.837,0-16-7.163-16-16s7.163-16,16-16s16,7.163,16,16S312.837,224,304,224z" id="svg_39" fill="#ffffff" fill-opacity="1"/>
	</g>
</g><g id="svg_40" class="selected" fill="#ffffff" fill-opacity="1">
	<g id="svg_41" fill="#ffffff" fill-opacity="1">
		<path d="M304,248c-26.51,0-48,21.49-48,48v24c0,4.418,3.582,8,8,8s8-3.582,8-8v-24c0-17.673,14.327-32,32-32    c17.673,0,32,14.327,32,32v24c0,4.418,3.582,8,8,8s8-3.582,8-8v-24C352,269.49,330.51,248,304,248z" id="svg_42" fill="#ffffff" fill-opacity="1"/>
	</g>
</g><g id="svg_43" class="selected" fill="#ffffff" fill-opacity="1">
	<g id="svg_44" fill="#ffffff" fill-opacity="1">
		<path d="M432,176c-17.673,0-32,14.327-32,32s14.327,32,32,32c17.673,0,32-14.327,32-32S449.673,176,432,176z M432,224    c-8.837,0-16-7.163-16-16s7.163-16,16-16s16,7.163,16,16S440.837,224,432,224z" id="svg_45" fill="#ffffff" fill-opacity="1"/>
	</g>
</g><g id="svg_46" class="selected" fill="#ffffff" fill-opacity="1">
	<g id="svg_47" fill="#ffffff" fill-opacity="1">
		<path d="M432,248c-26.499,0.026-47.974,21.501-48,48v24c0,4.418,3.582,8,8,8s8-3.582,8-8v-24c0-17.673,14.327-32,32-32    c17.673,0,32,14.327,32,32v24c0,4.418,3.582,8,8,8s8-3.582,8-8v-24C479.974,269.501,458.499,248.026,432,248z" id="svg_48" fill="#ffffff" fill-opacity="1"/>
	</g>
</g><g id="svg_49" class="selected" fill="#ffffff" fill-opacity="1">
	<g id="svg_50" fill="#ffffff" fill-opacity="1">
		<path d="M408,0H72c-4.418,0-8,3.582-8,8v144c0,4.418,3.582,8,8,8h336c4.418,0,8-3.582,8-8V8C416,3.582,412.418,0,408,0z M400,144    H80V16h320V144z" id="svg_51" fill="#ffffff" fill-opacity="1"/>
	</g>
</g><g id="svg_52" class="selected" fill="#ffffff" fill-opacity="1">
	<g id="svg_53" fill="#ffffff" fill-opacity="1">
		<path d="M320,40c-31.4,0-56,17.6-56,40s24.6,40,56,40c31.4,0,56-17.6,56-40S351.4,40,320,40z M320,104c-21.68,0-40-10.992-40-24    c0-11.368,13.992-21.192,32-23.488V80c0,2.122,0.844,4.156,2.344,5.656l17.168,17.168C327.719,103.572,323.866,103.966,320,104z     M348.168,96.848L328,76.688V56.512c18.008,2.296,32,12.12,32,23.488C359.284,87.302,354.794,93.696,348.168,96.848z" id="svg_54" fill="#ffffff" fill-opacity="1"/>
	</g>
</g><g id="svg_55" class="selected" fill="#ffffff" fill-opacity="1">
	<g id="svg_56" fill="#ffffff" fill-opacity="1">
		<path d="M120,40h-16c-4.418,0-8,3.582-8,8s3.582,8,8,8h16c4.418,0,8-3.582,8-8S124.418,40,120,40z" id="svg_57" fill="#ffffff" fill-opacity="1"/>
	</g>
</g><g id="svg_58" class="selected" fill="#ffffff" fill-opacity="1">
	<g id="svg_59" fill="#ffffff" fill-opacity="1">
		<path d="M232,40h-88c-4.418,0-8,3.582-8,8s3.582,8,8,8h88c4.418,0,8-3.582,8-8S236.418,40,232,40z" id="svg_60" fill="#ffffff" fill-opacity="1"/>
	</g>
</g><g id="svg_61" class="selected" fill="#ffffff" fill-opacity="1">
	<g id="svg_62" fill="#ffffff" fill-opacity="1">
		<path d="M192,72h-88c-4.418,0-8,3.582-8,8s3.582,8,8,8h88c4.418,0,8-3.582,8-8S196.418,72,192,72z" id="svg_63" fill="#ffffff" fill-opacity="1"/>
	</g>
</g><g id="svg_64" class="selected" fill="#ffffff" fill-opacity="1">
	<g id="svg_65" fill="#ffffff" fill-opacity="1">
		<path d="M232,72h-16c-4.418,0-8,3.582-8,8s3.582,8,8,8h16c4.418,0,8-3.582,8-8S236.418,72,232,72z" id="svg_66" fill="#ffffff" fill-opacity="1"/>
	</g>
</g><g id="svg_67" class="selected" fill="#ffffff" fill-opacity="1">
	<g id="svg_68" fill="#ffffff" fill-opacity="1">
		<path d="M144,104h-40c-4.418,0-8,3.582-8,8s3.582,8,8,8h40c4.418,0,8-3.582,8-8S148.418,104,144,104z" id="svg_69" fill="#ffffff" fill-opacity="1"/>
	</g>
</g><g id="svg_70" class="selected" fill="#ffffff" fill-opacity="1">
	<g id="svg_71" fill="#ffffff" fill-opacity="1">
		<path d="M232,104h-64c-4.418,0-8,3.582-8,8s3.582,8,8,8h64c4.418,0,8-3.582,8-8S236.418,104,232,104z" id="svg_72" fill="#ffffff" fill-opacity="1"/>
	</g>
</g><g id="svg_73" class="selected" fill="#ffffff" fill-opacity="1">
</g><g id="svg_74" class="selected" fill="#ffffff" fill-opacity="1">
</g><g id="svg_75" class="selected" fill="#ffffff" fill-opacity="1">
</g><g id="svg_76" class="selected" fill="#ffffff" fill-opacity="1">
</g><g id="svg_77" class="selected" fill="#ffffff" fill-opacity="1">
</g><g id="svg_78" class="selected" fill="#ffffff" fill-opacity="1">
</g><g id="svg_79" class="selected" fill="#ffffff" fill-opacity="1">
</g><g id="svg_80" class="selected" fill="#ffffff" fill-opacity="1">
</g><g id="svg_81" class="selected" fill="#ffffff" fill-opacity="1">
</g><g id="svg_82" class="selected" fill="#ffffff" fill-opacity="1">
</g><g id="svg_83" class="selected" fill="#ffffff" fill-opacity="1">
</g><g id="svg_84" class="selected" fill="#ffffff" fill-opacity="1">
</g><g id="svg_85" class="selected" fill="#ffffff" fill-opacity="1">
</g><g id="svg_86" class="selected" fill="#ffffff" fill-opacity="1">
</g><g id="svg_87" class="selected" fill="#ffffff" fill-opacity="1">
</g></g></svg>