<svg id="Icon_Set" enable-background="new 0 0 256 256" height="512" viewBox="0 0 256 256" width="512" xmlns="http://www.w3.org/2000/svg"><path d="m44.903 246.373v-31.35c0-2.761 2.604-5 5.816-5h149.51c7.247 4.89 10.876 12.79 10.876 20.67 0 7.9-3.629 15.78-10.876 20.68h-149.51c-3.212 0-5.816-2.239-5.816-5z" fill="#ff4a73"/><path d="m147.879 172.766-.004-50.354h-19.759l-.046-.131-.047.131h-19.886v50.287c0 3.59-2.293 7.001-6.282 9.345l-38.408 22.57c-3.51 2.063-1.37 5.989 3.265 5.989h61.357 61.308c4.641 0 6.778-3.935 3.256-5.994l-38.44-22.479c-4.007-2.344-6.314-5.764-6.314-9.364z" fill="#f9d335"/><path d="m128.073 122.28.04.13h-.09z" fill="#f2c300"/><path d="m189.373 210.6h-15c4.65 0 6.78-3.93 3.26-5.99l-38.44-22.48c-4.01-2.34-6.31-5.76-6.31-9.36l-.01-50.36h15l.01 50.36c0 3.6 2.3 7.02 6.31 9.36l38.44 22.48c3.52 2.06 1.39 5.99-3.26 5.99z" fill="#f2c300"/><path d="m113.113 122.41h-.09l.05-.13z" fill="#f2c300"/><path d="m108.133 122.41h15v50.29c0 3.59-2.29 7-6.28 9.34l-38.4 22.57c-3.52 2.07-1.37 5.99 3.26 5.99h-15c-4.63 0-6.78-3.92-3.26-5.99l38.4-22.57c3.99-2.34 6.28-5.75 6.28-9.34z" fill="#f9e27d"/><path d="m128.113 122.41h-.09l.05-.13z" fill="#f9e27d"/><path d="m143.113 122.41h-.09l.05-.13z" fill="#f9e27d"/><path d="m91.821 129.775h-21.45c-13.807 0-25-11.193-25-25v-14.445c0-13.807 11.193-25 25-25h21.45z" fill="#f9d335"/><path d="m185.635 129.903h-21.45v-64.446h21.45c13.807 0 25 11.193 25 25v14.445c0 13.808-11.193 25.001-25 25.001z" fill="#f9d335"/><path d="m210.633 90.46v14.44c0 13.81-11.19 25-25 25h-15c13.81 0 25-11.19 25-25v-14.44c0-13.81-11.19-25-25-25h15c13.81 0 25 11.19 25 25z" fill="#f2c300"/><path d="m85.373 129.78h-15c-13.81 0-25-11.2-25-25v-14.45c0-13.81 11.19-25 25-25h15c-13.81 0-25 11.19-25 25v14.45c0 13.8 11.19 25 25 25z" fill="#f9e27d"/><path d="m144.109 145.405h-32.105c-21.749 0-39.381-17.631-39.381-39.381v-43.941c0-5.523 4.477-10 10-10h90.866c5.523 0 10 4.477 10 10v43.941c0 21.749-17.631 39.381-39.38 39.381z" fill="#f9d335"/><path d="m183.493 62.08v43.94c0 21.75-17.64 39.38-39.38 39.38h-15c21.74 0 39.38-17.63 39.38-39.38v-43.94c0-5.52-4.48-10-10-10h15c5.52 0 10 4.48 10 10z" fill="#f2c300"/><path d="m127.003 145.4h-15c-21.75 0-39.38-17.63-39.38-39.38v-43.94c0-5.52 4.48-10 10-10h15c-5.52 0-10 4.48-10 10v43.94c0 21.75 17.63 39.38 39.38 39.38z" fill="#f9e27d"/><circle cx="128.045" cy="41.383" fill="#ff4a73" r="36.756"/><path d="m129.839 23.364 4.254 8.62c.212.429.621.726 1.094.795l9.513 1.382c1.64.238 2.295 2.254 1.108 3.411l-6.884 6.71c-.342.334-.499.815-.418 1.286l1.625 9.474c.28 1.634-1.435 2.88-2.902 2.108l-8.509-4.473c-.423-.222-.929-.222-1.352 0l-8.509 4.473c-1.467.771-3.182-.475-2.902-2.108l1.625-9.474c.081-.471-.075-.952-.418-1.286l-6.884-6.71c-1.187-1.157-.532-3.173 1.108-3.411l9.513-1.382c.473-.069.882-.366 1.094-.795l4.254-8.62c.737-1.487 2.856-1.487 3.59 0z" fill="#f9d335"/><path d="m125.283 37.57 6.88 6.71c.35.34.5.82.42 1.29l-1.43 8.38-2.43-1.27c-.43-.22-.93-.22-1.35 0l-8.51 4.47c-1.47.77-3.18-.47-2.9-2.11l1.62-9.47c.08-.47-.07-.95-.42-1.29l-6.88-6.71c-1.19-1.15-.53-3.17 1.11-3.41l9.51-1.38c.47-.07.88-.37 1.09-.8l4.26-8.62c.73-1.48 2.85-1.48 3.59 0l4.25 8.62c.21.43.62.73 1.09.8l.36.05-9.15 1.33c-1.64.24-2.3 2.26-1.11 3.41z" fill="#f9e27d"/><path d="m164.803 41.38c0 20.3-16.46 36.76-36.76 36.76-2.57 0-5.08-.26-7.5-.77 16.7-3.46 29.26-18.26 29.26-35.99s-12.56-32.52-29.26-35.98c2.42-.51 4.93-.77 7.5-.77 20.3 0 36.76 16.45 36.76 36.75z" fill="#ea2a6a"/><path d="m135.543 77.37c-2.42.51-4.93.77-7.5.77-20.3 0-36.75-16.46-36.75-36.76s16.45-36.75 36.75-36.75c2.57 0 5.08.26 7.5.77-16.7 3.46-29.25 18.25-29.25 35.98s12.55 32.53 29.25 35.99z" fill="#f973a3"/><path d="m211.103 230.69c0 7.9-3.63 15.78-10.87 20.68h-15c7.24-4.9 10.87-12.78 10.87-20.68 0-7.88-3.63-15.78-10.87-20.67h15c7.24 4.89 10.87 12.79 10.87 20.67z" fill="#ea2a6a"/><path d="m65.723 251.37h-15c-3.22 0-5.82-2.24-5.82-5v-31.35c0-2.76 2.6-5 5.82-5h15c-3.22 0-5.82 2.24-5.82 5v31.35c0 2.76 2.6 5 5.82 5z" fill="#f973a3"/><g fill="#5f266d"><path d="m202.463 206.71c-.66-.45-1.44-.69-2.23-.69h-1.96c-.36-1.93-1.63-3.7-3.62-4.86l-38.44-22.48c-2.75-1.61-4.33-3.77-4.33-5.91v-24.07c10.14-1.84 19.06-7.21 25.44-14.8h8.31c15.99 0 29-13.01 29-29v-14.44c0-15.37-12.02-27.99-27.16-28.93-.28-7.47-6.44-13.45-13.98-13.45h-5.24c.36-2.18.55-4.42.55-6.7 0-22.47-18.28-40.75-40.76-40.75-22.47 0-40.75 18.28-40.75 40.75 0 2.28.19 4.52.55 6.7h-5.22c-7.49 0-13.62 5.91-13.98 13.31-15.19.89-27.27 13.53-27.27 28.94v14.45c0 15.99 13.01 29 29 29h8.32c6.36 7.62 15.29 13.04 25.44 14.9v24.02c0 2.14-1.57 4.29-4.3 5.9l-38.41 22.57c-1.98 1.16-3.25 2.91-3.61 4.85h-7.09c-5.42 0-9.82 4.04-9.82 9v31.35c0 4.97 4.4 9 9.82 9h149.51c.8 0 1.58-.24 2.24-.68 16.83-11.383 16.837-36.621-.01-47.98zm-151.74 40.66c-1.13 0-1.82-.64-1.82-1v-11.67h84.05c5.285 0 5.293-8 0-8h-84.05v-11.68c0-.35.69-1 1.82-1h148.22c10.716 8.168 11.061 24.948 0 33.35zm61.41-74.67v-23.3h31.74l.01 23.37c0 5.06 3.02 9.73 8.29 12.81l34.96 20.44h-118.18l34.93-20.53c5.25-3.08 8.25-7.74 8.25-12.79zm-35.51-66.68c0-47.158-.032-44.008.05-44.69.37-2.96 2.89-5.25 5.95-5.25h7.41c6.133 15.672 21.11 26.06 38.01 26.06 17.262 0 32.134-10.822 38.02-26.06h7.43c3.09 0 5.65 2.36 5.97 5.38.052.52.03 44.038.03 44.56 0 16.751-11.754 30.967-27.62 34.52-2.654.607-5.267.86-8 .86h-31.74-.13c-2.829 0-5.579-.344-7.87-.89-15.653-3.538-27.51-17.609-27.51-34.49zm-6.25 19.76c-11.58 0-21-9.43-21-21v-14.45c0-10.99 8.48-20.03 19.25-20.92v36.61c0 7.11 1.72 13.83 4.77 19.76zm24.92-84.4c0-18.06 14.69-32.75 32.75-32.75s32.76 14.69 32.76 32.75c0 18.03-14.677 32.76-32.76 32.76-18.063 0-32.75-14.705-32.75-32.76zm111.34 63.52c0 11.58-9.42 21-21 21h-2.97c3.08-5.96 4.83-12.72 4.83-19.88v-36.47c10.71.94 19.14 9.96 19.14 20.91z"/><path d="m113.413 46.21c-1.52 8.884-1.574 8.714-1.45 9.87.475 4.099 4.971 6.61 8.76 4.61l7.32-3.85 7.33 3.85c3.784 1.995 8.276-.515 8.75-4.61.13-1.21.056-1.07-1.45-9.87l5.93-5.77c3.577-3.511 1.541-9.535-3.33-10.24l-8.19-1.19-3.66-7.42c-2.201-4.444-8.555-4.452-10.76 0l-3.66 7.42-8.19 1.19c-4.898.712-6.889 6.758-3.32 10.24zm12.17-12.46 2.46-4.98 2.46 4.98c.8 1.61 2.33 2.73 4.11 2.99l5.5.8-3.98 3.88c-1.29 1.25-1.87 3.05-1.57 4.82.403 2.319.197 1.117.94 5.48l-4.92-2.58c-1.59-.84-3.49-.84-5.08 0l-4.92 2.58c.756-4.366.55-3.165.94-5.47.31-1.78-.28-3.58-1.57-4.83l-3.98-3.88 5.51-.8c1.77-.26 3.31-1.38 4.1-2.99z"/><path d="m115.393 133.75c.8.07 1.63.12 2.47.15 5.469 0 5.4-7.845.28-8-.71-.02-1.39-.06-2.06-.12-5.815-.506-5.593 7.534-.69 7.97z"/><path d="m104.153 121.98c-.07-.06-.14-.12-.22-.17-9.882-6.722-10.761-21.924-9.99-26.55.596-5.299-7.37-6.086-7.95-.91-1.049 8.378.992 25.59 13.43 34.07 4.237 2.887 8.738-3.312 4.73-6.44z"/></g></svg>